# xmcd
#
# Track frame offsets: 
#        182
#        11550
#        24055
#        35430
#        49245
#        63050
#        78717
#        95375
#        112955
#        126585
#        142380
#        157792
#
# Disc length: 2371 seconds
#
# Revision: 1
# Processed by: cddbd v1.5.1PL2 Copyright (c) Steve Scherf et al.
# Submitted via: ExactAudioCopy v0.95b4
#
DISCID=9609410c
DTITLE=Don Walser - Here's to Country Music
DYEAR=1999
DGENRE=Country
TTITLE0=Here's to Country Music
TTITLE1=Sugar Moon
TTITLE2=Arkansas
TTITLE3=Tennessee Saturday Night
TTITLE4=At The End of A Long Lonely Day
TTITLE5=My Ride with Jimmue
TTITLE6=We Could, You and I
TTITLE7=Oakie Boogie
TTITLE8=It Makes No Differnce Now
TTITLE9=Polka Dot Blues
TTITLE10=Take Off Time
TTITLE11=Paper Rosie
EXTD=
EXTT0=
EXTT1=
EXTT2=
EXTT3=
EXTT4=
EXTT5=
EXTT6=
EXTT7=
EXTT8=
EXTT9=
EXTT10=
EXTT11=
PLAYORDER=
